<?xml version="1.0" encoding="utf-8"?><!-- Uploaded to: SVG Repo, www.svgrepo.com, Generator: SVG Repo Mixer Tools -->
<svg version="1.1" id="Uploaded to svgrepo.com" xmlns="http://www.w3.org/2000/svg" xmlns:xlink="http://www.w3.org/1999/xlink" 
	 width="800px" height="800px" viewBox="0 0 32 32" xml:space="preserve">
<style type="text/css">
	.feather_een{fill:#0B1719;}
</style>
<path class="feather_een" d="M30,16c0-1.972-0.956-3.716-2.424-4.81c0.256-1.805-0.288-3.701-1.676-5.089
	c-1.167-1.167-2.693-1.738-4.222-1.738c-0.29,0-0.58,0.021-0.867,0.061C19.716,2.956,17.972,2,16,2s-3.716,0.956-4.81,2.424
	c-0.288-0.041-0.578-0.061-0.867-0.061c-1.529,0-3.055,0.571-4.222,1.738C4.713,7.489,4.168,9.385,4.424,11.19
	C2.956,12.284,2,14.028,2,16s0.956,3.716,2.424,4.81c-0.256,1.805,0.288,3.701,1.676,5.089c1.167,1.167,2.693,1.738,4.222,1.738
	c0.29,0,0.58-0.021,0.867-0.061C12.284,29.044,14.028,30,16,30s3.716-0.956,4.81-2.424c0.288,0.041,0.578,0.061,0.867,0.061
	c1.529,0,3.055-0.571,4.222-1.738c1.388-1.388,1.933-3.285,1.676-5.089C29.044,19.716,30,17.972,30,16z M26.978,20.008l-0.476,0.355
	l0.084,0.588c0.225,1.585-0.283,3.131-1.393,4.242c-0.932,0.932-2.18,1.445-3.515,1.445c-0.242,0-0.486-0.017-0.727-0.051
	l-0.588-0.084l-0.355,0.476C19.051,28.263,17.59,29,16,29s-3.051-0.737-4.008-2.022l-0.355-0.476l-0.588,0.084
	c-0.24,0.034-0.485,0.051-0.727,0.051c-1.335,0-2.583-0.513-3.515-1.445c-1.111-1.111-1.618-2.657-1.393-4.242l0.084-0.588
	l-0.476-0.355C3.737,19.051,3,17.59,3,16c0-1.591,0.737-3.051,2.022-4.008l0.476-0.355l-0.084-0.588
	C5.189,9.464,5.697,7.918,6.808,6.808c0.932-0.932,2.18-1.445,3.515-1.445c0.242,0,0.487,0.017,0.727,0.051l0.588,0.084l0.355-0.476
	C12.949,3.737,14.41,3,16,3s3.051,0.737,4.008,2.021l0.355,0.476l0.588-0.084c0.24-0.034,0.485-0.051,0.727-0.051
	c1.335,0,2.583,0.513,3.515,1.445c1.111,1.111,1.618,2.657,1.393,4.242l-0.084,0.588l0.476,0.355C28.263,12.949,29,14.409,29,16
	C29,17.59,28.263,19.051,26.978,20.008z M23.494,12.896c0.126-1.163-0.239-2.368-1.13-3.26c-0.777-0.778-1.794-1.154-2.813-1.154
	c-0.149,0-0.298,0.008-0.447,0.024C18.371,7.595,17.26,7,16,7s-2.371,0.595-3.104,1.506c-0.148-0.016-0.297-0.024-0.447-0.024
	c-1.019,0-2.036,0.377-2.813,1.154c-0.891,0.891-1.256,2.097-1.13,3.26C7.595,13.629,7,14.74,7,16c0,1.26,0.595,2.371,1.506,3.104
	c-0.126,1.163,0.239,2.368,1.13,3.26c0.777,0.777,1.795,1.154,2.813,1.154c0.149,0,0.298-0.008,0.446-0.024
	C13.629,24.405,14.74,25,16,25s2.371-0.595,3.104-1.506c0.148,0.016,0.297,0.024,0.446,0.024c1.019,0,2.036-0.377,2.813-1.154
	c0.891-0.891,1.256-2.097,1.13-3.26C24.405,18.371,25,17.26,25,16C25,14.74,24.405,13.629,23.494,12.896z M22.867,18.325
	l-0.426,0.343l0.059,0.544c0.099,0.919-0.208,1.81-0.843,2.445c-0.556,0.555-1.304,0.861-2.106,0.861
	c-0.113,0-0.226-0.006-0.339-0.018l-0.544-0.059l-0.343,0.426C17.746,23.587,16.898,24,16,24s-1.746-0.413-2.325-1.133l-0.343-0.426
	L12.788,22.5c-0.113,0.012-0.226,0.018-0.339,0.018c-0.803,0-1.551-0.306-2.106-0.861C9.708,21.022,9.401,20.13,9.5,19.212
	l0.059-0.544l-0.426-0.343C8.413,17.746,8,16.898,8,16c0-0.898,0.413-1.746,1.133-2.325l0.426-0.343L9.5,12.788
	c-0.099-0.919,0.208-1.81,0.843-2.445c0.556-0.556,1.304-0.861,2.106-0.861c0.113,0,0.226,0.006,0.339,0.018l0.544,0.059
	l0.343-0.426C14.254,8.413,15.102,8,16,8s1.746,0.413,2.325,1.133l0.343,0.426L19.212,9.5c0.113-0.012,0.226-0.018,0.339-0.018
	c0.803,0,1.551,0.306,2.106,0.861c0.635,0.635,0.943,1.526,0.843,2.445l-0.059,0.544l0.426,0.343C23.587,14.254,24,15.102,24,16
	C24,16.898,23.587,17.746,22.867,18.325z"/>
</svg>