<?xml version="1.0" encoding="iso-8859-1"?>
<!-- Uploaded to: SVG Repo, www.svgrepo.com, Generator: SVG Repo Mixer Tools -->
<!DOCTYPE svg PUBLIC "-//W3C//DTD SVG 1.1//EN" "http://www.w3.org/Graphics/SVG/1.1/DTD/svg11.dtd">
<svg fill="#000000" height="800px" width="800px" version="1.1" id="Capa_1" xmlns="http://www.w3.org/2000/svg" xmlns:xlink="http://www.w3.org/1999/xlink" 
	 viewBox="0 0 254.38 254.38" xml:space="preserve">
<path d="M253.041,93.257c-0.512-4.63-1.177-9.027-1.976-13.07c-3.608-18.226-15.144-33.7-31.652-42.459
	c-6.764-3.588-24.699-12.512-44.174-20.606C149.849,6.57,131.698,1.44,119.75,1.44c-1.315,0-2.59,0.064-3.793,0.189l-0.185,0.018
	l-0.313,0.031l-0.312,0.044l-0.317,0.045c-8.066,1.143-23.074,3.271-36.858,11.242C59.501,23.691,49.738,41.1,49.738,63.354
	c0,10.518-10.333,24.139-21.272,38.559c-8.707,11.476-17.705,23.336-23.215,36.139c-7.228,16.794-6.994,32.489,0.697,46.647
	c11.332,20.861,29.771,37.331,54.806,48.953c22.765,10.569,47.845,15.641,64.729,18.537c2.912,0.499,5.926,0.751,8.963,0.751
	c23.734,0,52.597-15.757,77.209-42.151c23.752-25.468,39.181-55.662,42.33-82.841c0.221-1.917,0.344-3.881,0.375-6.01
	C254.424,117.483,254.425,105.767,253.041,93.257z M239.361,121.721c-0.023,1.616-0.113,3.088-0.276,4.5
	c-2.789,24.068-16.785,51.161-38.4,74.338c-21.501,23.058-46.882,37.381-66.238,37.381c-2.188,0-4.351-0.18-6.427-0.535
	c-39.213-6.726-87.021-19.607-108.89-59.865c-12.188-22.438,4.827-44.865,21.282-66.555c12.51-16.49,24.326-32.064,24.326-47.631
	c0-39.338,37.919-44.711,52.194-46.734l0.317-0.045l0.236-0.023c0.697-0.074,1.458-0.111,2.264-0.111
	c22.861,0,78.883,27.243,92.634,34.538c12.505,6.635,21.24,18.34,23.967,32.115c0.717,3.629,1.316,7.603,1.782,11.813
	C239.423,106.579,239.421,117.548,239.361,121.721z M210.044,95.607c-0.667-16-8-13.667-14-25.667
	c-2.333-4.665-1.587-8.016,0.19-10.375C171.159,47.137,133.637,31.44,119.75,31.44c-0.485,0-0.703,0.03-0.713,0.031
	c-0.9,0.128-1.781,0.26-2.646,0.398c2.173,2.729,3.744,6.724,2.651,12.389c-2.583,13.374-14.046,10.372-14.046,23.746
	c0,10.31-21.245,22.724-29.606,15.869c-5.164,12.633-14.194,24.535-23.026,36.178c-5.258,6.931-9.831,13.114-13.451,18.733
	c5.587,2.424,6.225,12.077,10.134,16.823c4.667,5.667,1.667,14.333,11.333,13.333c9.667-1,15.667,14.667,6,23
	c-3.157,2.722-6.776,4.052-10.219,4.615c20.366,14.346,47.014,21.163,70.815,25.436c0.882-2.83,4.081-5.726,7.691-7.352
	c5.882-2.649-1.546-3.131-2.991-13.247s6.503-9.875,10.838-5.54c4.335,4.335,13.969-4.817,19.027-12.315
	c5.058-7.498,10.116-0.45,16.378,4.848c2.792,2.362,3.599,6.351,3.64,10.047c2.767-2.547,5.497-5.25,8.159-8.105
	c15.085-16.175,26.186-34.649,31.457-51.826c-2.067-0.946-4.526-2.421-7.46-4.562C201.378,124.94,210.711,111.607,210.044,95.607z
	 M158.378,129.273c-7,11.333-25.667,0.524-23,12.595c2.667,12.072-21.333,22.738-24,10.072c-2.667-12.667-11.667-17,2-35.333
	c0,0,15.667-16,31.333-7.333S165.378,117.94,158.378,129.273z"/>
</svg>